<svg xmlns="http://www.w3.org/2000/svg" viewBox="0 0 160 160" role="img" aria-label="Animated utility affordance">
  <rect width="160" height="160" rx="14" fill="#e9eee8"/>
  <rect x="22" y="34" width="116" height="92" rx="16" fill="#f8faf7" stroke="#d9ded8"/>
  <rect x="38" y="58" width="84" height="34" rx="17" fill="#ffffff" stroke="#d9ded8"/>
  <circle cx="59" cy="75" r="10" fill="none" stroke="#26312d" stroke-width="5"/>
  <path d="m67 83 16 16" stroke="#26312d" stroke-width="5" stroke-linecap="round"/>
  <path d="M101 84 123 105" stroke="#2f6f46" stroke-width="4" stroke-linecap="round"/>
  <path d="M108 79 124 94" stroke="#d95547" stroke-width="4" stroke-linecap="round"/>
  <rect x="35" y="105" width="22" height="8" rx="4" fill="#26312d"/>
  <rect x="65" y="105" width="34" height="8" rx="4" fill="#aeb8b2"/>
  <rect x="106" y="105" width="20" height="8" rx="4" fill="#d95547"/>
  <rect x="38" y="43" width="16" height="6" rx="3" fill="#26312d"/>
  <rect x="59" y="43" width="22" height="6" rx="3" fill="#aeb8b2"/>
  <rect x="86" y="43" width="16" height="6" rx="3" fill="#2f6f46"/>
  <rect x="107" y="43" width="15" height="6" rx="3" fill="#d95547"/>
</svg>
