<svg xmlns="http://www.w3.org/2000/svg" viewBox="0 0 160 160" role="img" aria-label="Faceted object cutouts">
  <defs>
    <pattern id="grid" width="16" height="16" patternUnits="userSpaceOnUse">
      <rect width="8" height="8" fill="#eef2ed"/>
      <rect x="8" y="8" width="8" height="8" fill="#eef2ed"/>
      <rect x="8" width="8" height="8" fill="#fbfbf7"/>
      <rect y="8" width="8" height="8" fill="#fbfbf7"/>
    </pattern>
    <filter id="shadow" x="-20%" y="-20%" width="140%" height="140%">
      <feDropShadow dx="0" dy="9" stdDeviation="6" flood-color="#171f1c" flood-opacity=".18"/>
    </filter>
  </defs>
  <rect width="160" height="160" rx="14" fill="url(#grid)"/>
  <g filter="url(#shadow)">
    <path d="M32 72 60 46 96 61 105 102 70 123 36 106z" fill="#c44533"/>
    <path d="M60 46 76 78 32 72z" fill="#e95e48"/>
    <path d="M76 78 96 61 105 102z" fill="#8e312b"/>
    <path d="M32 72 76 78 36 106z" fill="#b73b2f"/>
    <path d="M36 106 76 78 70 123z" fill="#732a27"/>
    <path d="M70 123 76 78 105 102z" fill="#a94736"/>
  </g>
  <g filter="url(#shadow)">
    <circle cx="111" cy="38" r="15" fill="#ffe06b"/>
    <circle cx="96" cy="48" r="15" fill="#fff6c7"/>
    <circle cx="120" cy="55" r="15" fill="#fff6c7"/>
    <circle cx="106" cy="61" r="15" fill="#f9f0bd"/>
    <circle cx="109" cy="51" r="10" fill="#f1b83f"/>
    <circle cx="106" cy="49" r="3" fill="#171f1c"/>
    <circle cx="114" cy="52" r="3" fill="#171f1c"/>
  </g>
  <path d="M25 124c23 8 55 8 96 0" fill="none" stroke="#171f1c" stroke-opacity=".12" stroke-width="5" stroke-linecap="round"/>
</svg>
