<svg xmlns="http://www.w3.org/2000/svg" viewBox="0 0 160 160" role="img" aria-label="Physical metaphor UI">
  <defs>
    <pattern id="paper-grid" width="18" height="18" patternUnits="userSpaceOnUse">
      <path d="M18 0H0v18" fill="none" stroke="#c9c1ab" stroke-opacity=".45" stroke-width="1"/>
    </pattern>
    <filter id="paper-shadow" x="-20%" y="-20%" width="140%" height="140%">
      <feDropShadow dx="5" dy="8" stdDeviation="3" flood-color="#171f1c" flood-opacity=".16"/>
    </filter>
  </defs>
  <rect width="160" height="160" rx="14" fill="#f5f0e3"/>
  <rect width="160" height="160" rx="14" fill="url(#paper-grid)"/>
  <g filter="url(#paper-shadow)">
    <rect x="26" y="34" width="60" height="78" rx="2" fill="#fff7ce" stroke="#d5c99d" transform="rotate(-8 56 73)"/>
    <circle cx="56" cy="73" r="19" fill="#f7b39d"/>
    <circle cx="56" cy="73" r="11" fill="#e95b45"/>
  </g>
  <g filter="url(#paper-shadow)" transform="rotate(8 103 82)">
    <rect x="92" y="29" width="38" height="38" rx="7" fill="#ffffff" stroke="#d8ded7"/>
    <path d="M104 48h15M112 40v15" stroke="#315b4b" stroke-width="4" stroke-linecap="round"/>
  </g>
  <g filter="url(#paper-shadow)" transform="rotate(-3 104 118)">
    <rect x="88" y="98" width="48" height="28" rx="6" fill="#dce9f3" stroke="#aebec8"/>
    <path d="M99 112h26" stroke="#446479" stroke-width="4" stroke-linecap="round"/>
  </g>
  <path d="M85 63c17 7 28 17 35 31" stroke="#171f1c" stroke-opacity=".18" stroke-width="2" stroke-dasharray="5 5" fill="none"/>
</svg>
