<svg xmlns="http://www.w3.org/2000/svg" viewBox="0 0 160 160" role="img" aria-label="Prismatic glass object">
  <defs>
    <radialGradient id="glow" cx="50%" cy="45%" r="55%">
      <stop stop-color="#6fd7ff" stop-opacity=".38"/>
      <stop offset=".55" stop-color="#101822" stop-opacity=".35"/>
      <stop offset="1" stop-color="#070b10"/>
    </radialGradient>
    <linearGradient id="glass" x1="0" y1="0" x2="1" y2="1">
      <stop stop-color="#effbff" stop-opacity=".82"/>
      <stop offset=".25" stop-color="#80dfff" stop-opacity=".36"/>
      <stop offset=".58" stop-color="#6d8dff" stop-opacity=".28"/>
      <stop offset=".78" stop-color="#ff80c6" stop-opacity=".34"/>
      <stop offset="1" stop-color="#ffffff" stop-opacity=".55"/>
    </linearGradient>
    <filter id="blur">
      <feGaussianBlur stdDeviation="5"/>
    </filter>
  </defs>
  <rect width="160" height="160" rx="14" fill="#090d13"/>
  <rect width="160" height="160" rx="14" fill="url(#glow)"/>
  <path d="M28 116c28-12 68-12 104 0" stroke="#72d8ff" stroke-opacity=".2" stroke-width="14" filter="url(#blur)" fill="none"/>
  <path d="M73 22 116 51 102 137 52 126 38 50z" fill="url(#glass)" stroke="#dff6ff" stroke-opacity=".42" stroke-width="1.5"/>
  <path d="M73 22 79 130 52 126 38 50z" fill="#ffffff" opacity=".20"/>
  <path d="M116 51 79 130 102 137z" fill="#4ab1d4" opacity=".20"/>
  <path d="M33 92 127 64M38 116l84-24" stroke="#eaf7ff" stroke-width="5" stroke-linecap="round" opacity=".78"/>
  <path d="M32 103 131 78M42 128l70-20" stroke="#55c7f0" stroke-width="3" stroke-linecap="round" opacity=".68"/>
  <path d="M53 38 94 122" stroke="#ffffff" stroke-opacity=".22" stroke-width="2"/>
  <path d="M99 50 66 128" stroke="#ff8fca" stroke-opacity=".22" stroke-width="2"/>
</svg>
