<svg xmlns="http://www.w3.org/2000/svg" viewBox="0 0 160 160" role="img" aria-label="Whimsical digital room">
  <rect width="160" height="160" rx="14" fill="#eaf0e6"/>
  <rect x="18" y="38" width="124" height="86" rx="8" fill="#fff8e8" stroke="#cfd8cc"/>
  <rect x="18" y="38" width="124" height="17" rx="8" fill="#f4ead7"/>
  <circle cx="32" cy="47" r="3" fill="#e65b4a"/>
  <circle cx="43" cy="47" r="3" fill="#e9c45f"/>
  <circle cx="54" cy="47" r="3" fill="#3d7d56"/>
  <rect x="34" y="70" width="33" height="34" fill="#b6e3f5" stroke="#fffdf0" stroke-width="8"/>
  <path d="M36 104h30" stroke="#6aa9c7" stroke-width="3" opacity=".6"/>
  <ellipse cx="91" cy="100" rx="13" ry="18" fill="#315b4b"/>
  <ellipse cx="75" cy="108" rx="10" ry="14" fill="#f0c85c"/>
  <path d="M104 82c13 4 22 16 22 31 0 8-5 13-13 13-14 0-25-12-25-27 0-10 6-19 16-17z" fill="#c45d4b"/>
  <path d="M102 82c-3 13-1 26 9 42" stroke="#80392f" stroke-width="3" opacity=".35" fill="none"/>
  <path d="M20 125h120" stroke="#c5b28e" stroke-width="13"/>
  <path d="M47 124c11-7 20-7 31 0M91 124c10-6 22-7 34 0" stroke="#866e4c" stroke-opacity=".22" stroke-width="3" fill="none"/>
</svg>
